<svg xmlns="http://www.w3.org/2000/svg" viewBox="0 0 353.04 842.09"><defs><style>.cls-1{fill:#fff;}.cls-2{fill:#1a1a1a;}</style></defs><title>BIERE END_1</title><g id="Calque_2" data-name="Calque 2"><g id="scroll_my_friend" data-name="scroll my friend"><path d="M117.46,148.8c-.82-9-4.58-17-8.09-25.14a69.27,69.27,0,0,1-4.85-14.39c-1-5.34-.37-10.78-2-16-1.45-4.52-4.39-9-4.66-13.85-.28-5.13,4.35-7.8,4.8-12.52.56-5.78-5.58-10-10.82-8.37-1.84.56-1.06,3.46.8,2.89,3.53-1.09,7.78,1.72,6.93,5.85-.45,2.19-2.59,4-3.53,6a12.66,12.66,0,0,0-1,7.58c.53,3.64,2.2,7,3.52,10.37a40.86,40.86,0,0,1,2.39,12.8c1,16,12.09,29,13.55,44.83.18,1.91,3.18,1.93,3,0Z" transform="translate(0 -23.22)"/><path d="M93.07,146.56l3.7-7.06a1.51,1.51,0,0,0-2.35-1.82,9.15,9.15,0,0,0-2.93,4.82c-.29,1.17,1.08,2.5,2.2,1.69a6.12,6.12,0,0,0,2.59-6.1c-.21-1.47-2.63-1.39-2.9,0l-1,5.32c-.37,1.89,2.52,2.7,2.89.8l1-5.32h-2.9a2.93,2.93,0,0,1-1.2,2.71l2.2,1.7a6.48,6.48,0,0,1,2.16-3.5L94.18,138l-3.7,7.06c-.9,1.71,1.69,3.22,2.59,1.51Z" transform="translate(0 -23.22)"/><path class="cls-1" d="M62.36,47.82A117.39,117.39,0,0,1,58,73.91c-2.26,8.33,2.81,18.32,11.52,20.3,9.21,2.1,17.25-2.79,20.3-11.52a69,69,0,0,0,3.69-26c-.42-8.25-6-15.08-14.3-16.2A16.54,16.54,0,0,0,61.06,52.3a143.48,143.48,0,0,0-5.48,31.05c-.75,11.2-.06,23.27,10.88,29.51,5.79,3.3,15.45,3.07,20-2.58,7.09-8.82,9.7-18.63,11.42-29.63a181.45,181.45,0,0,0,2.33-33.24A16.55,16.55,0,0,0,85.9,31.21c-7.56-1-16.53,3.73-18.1,11.82A199.12,199.12,0,0,0,64.13,91c.42,8.25,6,15.08,14.31,16.2a16.47,16.47,0,0,0,18.1-11.82,278,278,0,0,0,8.78-55.28h-33L71,71.82C70.62,80,77.52,87,85.28,88c7.23,1,17-3.69,18.1-11.82l4.08-29.59L75.05,42.23l-.79,16.69c-.39,8.19,6.58,15.17,14.3,16.2A16.51,16.51,0,0,0,106.67,63.3,96.85,96.85,0,0,0,110,42.93c.57-8.63-8-16.88-16.5-16.5-9.91.45-15.28,7.3-16.5,16.5L75.2,56.8c-1.14,8.59,8.4,16.86,16.5,16.5,9.91-.44,15.27-7.29,16.5-16.5L110,42.93H77c-.06,1.21-.16,2.41-.28,3.6.2-1.39.13-1.07-.2,1-.5,2.37-1,4.7-1.71,7l32.41,4.39.79-16.69c.39-8.19-6.58-15.16-14.3-16.2-7.24-1-17,3.68-18.11,11.82L71.56,67.43,104,71.82l1.35-31.77c.37-8.64-7.85-16.89-16.5-16.5-9.37.42-15.95,7.25-16.5,16.5a221.91,221.91,0,0,1-7.6,46.51L97.13,91A162.3,162.3,0,0,1,99.62,51.8L67.21,47.41a157.28,157.28,0,0,1-1,23.88c-.31,2.19-1.27,7.41-2,10.67-.34,1.47-.79,2.92-1.14,4.38-.65,1.83-.64,1.91,0,.25-1,1.6-1,1.72.11.36l20-2.58q4.84,2.85,5.11,7.55c.14,1.41.16,1.36.08-.15.07-1.24,0-2.5,0-3.74.1-3.43.33-6.87.74-10.28s-.72,3.75.34-2.1c.27-1.54.56-3.08.88-4.6.72-3.37,1.59-6.68,2.57-10L60.47,56.68c.38,7.39,0,10.16-2.51,17.23l31.82,8.78a172.22,172.22,0,0,0,5.58-34.87c.51-8.64-8-16.89-16.5-16.5-9.38.42-16,7.25-16.5,16.5Z" transform="translate(0 -23.22)"/><path d="M82.36,97.73l20-18.68c1.41-1.32-.71-3.44-2.12-2.13l-20,18.69c-1.42,1.32.71,3.44,2.12,2.12Z" transform="translate(0 -23.22)"/><path d="M83.89,116.69l11.58-11c2.45-2.32,7.28-5.17,7.47-8.8a1.5,1.5,0,0,0-.75-1.29,2.17,2.17,0,0,0-3,.81,1.53,1.53,0,0,0,.24,1.82l.19.25c1.18,1.52,3.29-.61,2.12-2.12l-.19-.25.23,1.82-2.06-.35-1,1A25.78,25.78,0,0,0,96,101.11l-4.73,4.49-9.48,9c-1.41,1.33.72,3.45,2.12,2.12Z" transform="translate(0 -23.22)"/><path d="M97.18,153.61l-4,10.67c-.68,1.81,2.22,2.59,2.89.8l4-10.68c.69-1.8-2.21-2.59-2.89-.79Z" transform="translate(0 -23.22)"/><path d="M98.32,162a26.64,26.64,0,0,1-3.62,11.32,1.5,1.5,0,0,0,2.59,1.51,30.21,30.21,0,0,0,4-12.83c.16-1.93-2.84-1.92-3,0Z" transform="translate(0 -23.22)"/><path d="M98.36,173.09a13,13,0,0,1-.89,8.26c-.81,1.74,1.78,3.27,2.59,1.51a16.36,16.36,0,0,0,1.19-10.56c-.4-1.89-3.29-1.09-2.89.79Z" transform="translate(0 -23.22)"/><path d="M92.41,216.72a41.28,41.28,0,0,1-1.28,12.95,1.5,1.5,0,0,0,2.89.79,43.59,43.59,0,0,0,1.39-13.74c-.11-1.92-3.11-1.93-3,0Z" transform="translate(0 -23.22)"/><path d="M93.73,230.48a18.5,18.5,0,0,1-1.14,9.92c-.71,1.79,2.19,2.57,2.89.79a21.32,21.32,0,0,0,1.14-11.51c-.31-1.9-3.21-1.09-2.89.8Z" transform="translate(0 -23.22)"/><path d="M95.34,237.7,93.9,248.37c-.25,1.89,2.64,2.7,2.9.79l1.43-10.66c.26-1.89-2.63-2.7-2.89-.8Z" transform="translate(0 -23.22)"/><path d="M93.22,309.82l-1.54,14.66c-.2,1.92,2.8,1.9,3,0l1.54-14.66c.2-1.92-2.81-1.91-3,0Z" transform="translate(0 -23.22)"/><path d="M92.75,327.75A8.89,8.89,0,0,1,93,338.18c-1.07,1.61,1.53,3.12,2.59,1.51a11.93,11.93,0,0,0-.69-14.06c-1.19-1.53-3.29.61-2.12,2.12Z" transform="translate(0 -23.22)"/><path d="M94.79,338.51a12.82,12.82,0,0,1,.95,8.25c-.4,1.88,2.49,2.69,2.89.8A16.21,16.21,0,0,0,97.38,337c-.83-1.74-3.41-.22-2.59,1.52Z" transform="translate(0 -23.22)"/><path d="M95.81,352.91l1.33,5.34c.47,1.88,3.37,1.08,2.9-.79l-1.34-5.34c-.47-1.88-3.36-1.08-2.89.79Z" transform="translate(0 -23.22)"/><path d="M123.31,505.14,121,522.37c-.25,1.9,2.75,1.88,3,0l2.3-17.23c.25-1.91-2.75-1.89-3,0Z" transform="translate(0 -23.22)"/><path d="M123.4,525.08,123,539.75c0,1.93,3,1.92,3,0l.44-14.67c.06-1.94-2.94-1.93-3,0Z" transform="translate(0 -23.22)"/><path d="M125.21,537.07l-1.51,17.34c-.16,1.92,2.84,1.91,3,0l1.51-17.34c.17-1.92-2.83-1.91-3,0Z" transform="translate(0 -23.22)"/><path d="M125.27,567.92a1.5,1.5,0,0,0,0-3,1.5,1.5,0,0,0,0,3Z" transform="translate(0 -23.22)"/><path d="M125.1,574.43v5.34a1.5,1.5,0,0,0,3,0v-5.34a1.5,1.5,0,0,0-3,0Z" transform="translate(0 -23.22)"/><path d="M127.77,585.11v5.34a1.5,1.5,0,0,0,3,0v-5.34a1.5,1.5,0,0,0-3,0Z" transform="translate(0 -23.22)"/><path d="M233,550.74a164.58,164.58,0,0,0,52.18-.69c1.9-.33,1.1-3.23-.8-2.9a159.53,159.53,0,0,1-50.58.7c-1.89-.28-2.7,2.61-.8,2.89Z" transform="translate(0 -23.22)"/><path d="M236.51,559a10.26,10.26,0,0,0,7.51,2.59c1.91-.14,1.93-3.14,0-3a7.24,7.24,0,0,1-5.39-1.71c-1.45-1.26-3.58.85-2.12,2.12Z" transform="translate(0 -23.22)"/><path class="cls-1" d="M93.3,94.66c-1.2-.51-1.38-.59-.55-.23C89,87.7,79,91,78.77,98.21a140,140,0,0,0,4,37.92c1.7,7,12.94,7.3,14.46,0a125.27,125.27,0,0,0,.68-47.89c-1.45-8.23-15.72-6.43-14.73,2l3,25.49c.47,4,3.11,7.5,7.5,7.5,3.92,0,7.68-3.43,7.5-7.5l-1-22.17c-.38-8.56-12-10-14.73-2a14.87,14.87,0,0,0,0,10c3.26,9,17.76,5.13,14.47-4a1.42,1.42,0,0,1,0-2l-14.74-2,1,22.17h15l-3-25.49-14.74,2a105.53,105.53,0,0,1-.67,39.92H97.18a124.57,124.57,0,0,1-3.41-33.93L79.8,102a12.58,12.58,0,0,0,5.92,5.61c3.76,1.6,8,1.09,10.27-2.69,1.87-3.14,1-8.68-2.69-10.26Z" transform="translate(0 -23.22)"/><path class="cls-1" d="M48.81,115.65c-.73,9.51-1.48,19.33-.89,28.87.22,3.58.95,7,3.75,9.48,3.83,3.42,9.12,2.56,13.84,2.37L95,155.22c7.5-.3,17,.59,22.1-6.15,5.33-7.08,2.12-18.41,1.37-26.5l-2.69-29.36-2.61-28.39c-.45-4.89-.84-9.79-1.35-14.68-.45-4.44-1.19-8.69-5.14-11.39s-8.77-2-13.29-1.84l-16.88.74L42.8,39.12c-3.79.17-7.84,3.31-7.5,7.5l4.29,51.94c1.38,16.7,1.28,34,8.82,49.36,4.26,8.66,17.2,1.07,13-7.58-6.72-13.66-5.86-30.83-7.09-45.7l-4-48-7.5,7.5,29.78-1.3,15.89-.69,6-.26,4-.18q3.57.35-1.62-2.53c-.7.33,1.1,11.94,1.26,13.7l1.44,15.66,2.61,28.39c.86,9.46,1.77,18.92,2.6,28.38.12,1.16.22,2.32.3,3.49-.31,1.7-.12,2,.57.88-.89.62-3.72.29-4.6.33-4.59.19-9.19.36-13.78.54l-13.79.53-7.87.31-3.94.16q-4.92-.5,1.35,3c.85-.53,0-12.34.06-13.49.14-5.13.44-10.26.83-15.38.75-9.63-14.25-9.58-15,0Z" transform="translate(0 -23.22)"/><path class="cls-1" d="M45.81,67.66l8.5,62.69c1.15,8.51,14.73,6.24,14.73-2q0-35.7-3.3-71.28c-.87-9.44-15.18-9.82-15,0a557.82,557.82,0,0,0,5.94,70.81c.54,3.68,4.94,5.82,8.23,5.38,3.93-.53,6.11-3.6,6.5-7.37a293.81,293.81,0,0,0-.18-62.47c-1-9.46-14.44-9.82-15,0a216.9,216.9,0,0,0,7.26,69c2.35,8.69,13.84,6,14.73-2a270.7,270.7,0,0,0-1-66.64c-1.17-8.6-14.55-6.15-14.73,2a269,269,0,0,0,5.61,60.63c1.44,7,13.3,7.33,14.46,0a185.78,185.78,0,0,0-.83-63.59C80,54,67.62,56.94,67,64.83a106.57,106.57,0,0,0,5.4,43.43c2.18,6.36,13.07,7.86,14.46,0a152.73,152.73,0,0,0,.71-48.93c-1-7.16-13.42-7.16-14.47,0a56.93,56.93,0,0,0,5.16,34.12c3.15,6.46,11.53,3.56,13.71-1.79A39,39,0,0,0,92,62.59c-2.9-7.28-15.07-7.16-14.73,2a48.14,48.14,0,0,0,8.16,25.56c3.78,5.56,11.44,4.36,13.71-1.79a72.59,72.59,0,0,0,4.22-20.24l-14.73,2,1.92,6.38c2.33,7.7,15.9,6.71,14.73-2a131.67,131.67,0,0,0-4.16-20.24c-1.93-6.53-10.07-7-13.71-1.79a25.09,25.09,0,0,0-4.17,12l14-3.79a36.93,36.93,0,0,0-32.79-17.5c-8.42.36-10.22,12.2-2,14.73l5.29,1.62V45.07c-9.54,2.45-9.48,12.44-8.13,20.29a161.15,161.15,0,0,1,2.25,31.86A157.85,157.85,0,0,1,58,128c-2,8.79-3.83,18.33,6.4,22.41,3.91,1.55,8-1.75,9.22-5.24l3.19-9.45H62.37l1.52,8.19c1,5.2,9.15,7.67,12.53,3.31a50.8,50.8,0,0,0,10-20.31c2.13-9.45-11.38-13.12-14.46-4a21.93,21.93,0,0,0,5.81,23c3.42,3.24,9.39,2.82,11.78-1.52A47.35,47.35,0,0,0,95.38,116c-1.08-9.54-14.1-9.73-15,0-.57,6.19-.27,13.14,1.94,19,2.34,6.21,9,10.26,15.25,6.46,5.4-3.29,6.31-10.35,7.1-16a74.19,74.19,0,0,0-.27-20.62c-.51-3.68-5-5.82-8.23-5.37-3.87.52-6.18,3.59-6.5,7.36a106.66,106.66,0,0,0,2.67,34c1.63,6.81,13.33,7.49,14.47,0a105.56,105.56,0,0,0-1.72-41.51c-2.13-8.68-14-6-14.73,2a116.29,116.29,0,0,0,1.92,33.19c1.72,8.69,14.23,6,14.73-2a174.92,174.92,0,0,0-2.39-40.87c-1.27-7.37-12.87-6.94-14.46,0l-1.7,7.42c-2.16,9.39,12.3,13.4,14.46,4l1.7-7.41H90.16A158.15,158.15,0,0,1,92,132.51l14.73-2a102.49,102.49,0,0,1-1.38-29.2l-14.73,2a86.15,86.15,0,0,1,1.71,33.54h14.47a93.32,93.32,0,0,1-2.14-30l-14.73,2a55.19,55.19,0,0,1,.24,12.12,44.39,44.39,0,0,1-.7,5c-.23,1.16-.49,2.31-.79,3.45-.52,1.26,0,.9,1.54-1.1h4c2.37.85,1.61,2.38,1.7-.22,0-1.29-.55-2.8-.67-4.11a44.82,44.82,0,0,1,.13-7.94h-15a33.74,33.74,0,0,1-3.83,20.77l11.78-1.51c-2.57-2.44-3.08-5.05-2-8.38l-14.46-4a34.23,34.23,0,0,1-6.1,13.68l12.54,3.31-1.52-8.18c-1.44-7.8-12.29-6.43-14.46,0l-3.19,9.44,9.23-5.24q2.46,4.29,2.73,2.14l0-.38c.78-.81.87-3.58,1.15-4.79q1.29-5.52,2.2-11.12a185.1,185.1,0,0,0,2.36-23.61A169.43,169.43,0,0,0,76,75.53q-.58-5.7-1.49-11.36a44.7,44.7,0,0,0-.82-4.81c-.83-3,1.88-.82-2,.17,7.36-1.89,6.9-12.34,0-14.46l-5.29-1.63-2,14.74A21.79,21.79,0,0,1,84.28,68.25c4.25,6.75,13.11,3.34,14-3.78A10,10,0,0,1,100.38,60L86.67,58.25A107.44,107.44,0,0,1,90.29,74.5l14.74-2-1.93-6.38c-2.51-8.33-14.13-6.34-14.73,2a58.89,58.89,0,0,1-3.68,16.25L98.4,82.57a33.47,33.47,0,0,1-6.12-18l-14.73,2a26.74,26.74,0,0,1-.09,21.09l13.7-1.79a39,39,0,0,1-3.64-22.56H73.05a129.33,129.33,0,0,1-.7,40.95H86.81A95.35,95.35,0,0,1,82,64.83l-14.73,2a164.31,164.31,0,0,1,.84,55.61H82.52a251,251,0,0,1-5.07-56.64l-14.74,2a255.51,255.51,0,0,1,.51,62.65l14.73-2a203.46,203.46,0,0,1-6.72-65h-15a293.81,293.81,0,0,1,.18,62.47l14.74-2a526.6,526.6,0,0,1-5.41-66.83h-15Q54,92.62,54,128.35l14.73-2-8.5-62.69c-.54-4-5.7-6.22-9.23-5.23-4.33,1.21-5.78,5.18-5.23,9.22Z" transform="translate(0 -23.22)"/><path class="cls-1" d="M136.51,696.15q-5.17-106.9-12.7-213.67T106.4,269.15q-5.61-60.48-12-120.87c-.43-4-3.15-7.5-7.5-7.5-3.73,0-7.93,3.44-7.5,7.5q11.2,106.42,20.09,213.1t15.37,213.49q3.69,60.61,6.63,121.28c.46,9.61,15.46,9.66,15,0Z" transform="translate(0 -23.22)"/><path d="M74.5,56.43a12.85,12.85,0,0,0-5.66,10.43,1.51,1.51,0,0,0,2.56,1.06l7.23-7.19-2.36-1.82A103.19,103.19,0,0,0,65.86,77.3a1.5,1.5,0,0,0,2.59,1.51A85,85,0,0,1,79.24,66.93l-2.35-1.82a155.18,155.18,0,0,0-13.13,24,1.5,1.5,0,0,0,2.59,1.51A122.27,122.27,0,0,1,84.43,68.66l-2.12-2.13A173.67,173.67,0,0,0,62.86,92.31c-.74,1.19.83,3,2,2A154.88,154.88,0,0,0,85.67,75.14c1.29-1.43-.73-3.49-2.12-2.12a127.13,127.13,0,0,0-20.7,26.66,1.51,1.51,0,0,0,2.36,1.82L89.4,78.81c1.41-1.33-.7-3.42-2.12-2.12A74.86,74.86,0,0,0,68.19,104c-.58,1.4,1.55,2.52,2.5,1.46Q82.24,92.61,93.77,79.79l-2.12-2.12A254.15,254.15,0,0,0,72.41,105.2,1.5,1.5,0,0,0,74.76,107,221.64,221.64,0,0,0,95.4,86.2c1.25-1.44-.82-3.56-2.12-2.12a140.15,140.15,0,0,0-17.57,24.07c-.82,1.43,1.23,3.15,2.36,1.82L96,88.81,93.65,87,80.16,112.64a1.51,1.51,0,0,0,2.36,1.82A176.43,176.43,0,0,0,99.06,98l-2.35-1.82-9.29,18.1c-.73,1.43,1.22,3.21,2.36,1.82A61.55,61.55,0,0,1,100.06,106l-2.26-1.3a9.39,9.39,0,0,1-2.68,8.42c-1.33,1.39.79,3.52,2.13,2.12a12.2,12.2,0,0,0,3.55-10.54c-.13-1-1.24-2.08-2.26-1.29a64.91,64.91,0,0,0-10.88,10.53L90,115.75l9.29-18.1c.73-1.44-1.18-3.16-2.36-1.82A175.34,175.34,0,0,1,80.4,112.34l2.35,1.81L96.24,88.51c.75-1.44-1.21-3.18-2.36-1.82L76,107.85l2.36,1.82A135.19,135.19,0,0,1,95.4,86.2l-2.12-2.12A222.86,222.86,0,0,1,72.64,104.9L75,106.72A247.83,247.83,0,0,1,93.77,79.79c1.18-1.47-.81-3.58-2.12-2.12Q80.11,90.48,68.57,103.3l2.51,1.45A71.54,71.54,0,0,1,89.4,78.81l-2.12-2.12L63.09,99.38l2.35,1.82A124.17,124.17,0,0,1,85.67,75.14L83.55,73A151.55,151.55,0,0,1,63.4,91.77l2.05,2a169.12,169.12,0,0,1,19-25.16,1.5,1.5,0,0,0-2.12-2.13A125.76,125.76,0,0,0,63.76,89.07l2.59,1.51a154.62,154.62,0,0,1,13.13-24c1-1.47-1.15-2.93-2.36-1.82A87.78,87.78,0,0,0,65.86,77.3l2.59,1.51A103.73,103.73,0,0,1,78.86,60.43c1-1.42-1.17-3-2.36-1.82L69.28,65.8l2.56,1.06A9.6,9.6,0,0,1,76,59c1.56-1.12.06-3.72-1.51-2.59Z" transform="translate(0 -23.22)"/><path d="M89.88,151.41q1.62,123,12.8,245.61,3.19,34.94,7.18,69.78c.21,1.9,3.21,1.92,3,0Q98.94,344.58,94.57,221.53q-1.25-35.06-1.69-70.12c0-1.93-3-1.94-3,0Z" transform="translate(0 -23.22)"/><path d="M117.16,507,132,675.25c.16,1.9,3.16,1.92,3,0L120.16,507c-.17-1.91-3.17-1.93-3,0Z" transform="translate(0 -23.22)"/><path class="cls-1" d="M153.47,864.31c-37,0-140.62-4.42-147.74-18.66C-1,832.1.85,823.12,2.85,813.62c.32-1.55.66-3.15.95-4.75.41-2.28,10.13-56,10.13-85.11V574.12l-1-107.25c11.25-.77,120.07-8.06,186.18-8.06,34.46,0,46,2,49.58,3.77.25,1,1.22,6.12,2.87,26.69.64,8.05,4.62,21.55,24.05,21.55a31.14,31.14,0,0,0,5.44-.43h.06l.06,0a47.24,47.24,0,0,1,12.77-1.67c14.44,0,33.72,6,43.61,34.41,16.38,47.07,16.88,146.84,11.13,163.14-6.12,17.34-12.16,29.11-24.91,37.93-4.58,3.18-13.15,7-22.23,11-17.06,7.52-36.4,16-39.81,24.9-2.78,7.23.93,18.45,4.51,29.31,3,9.06,5.82,17.63,3.67,21.08a41.32,41.32,0,0,0-3.16,6.35c-1.94,4.62-3.23,7.66-11.48,10.41C243.09,851.24,176.49,864.31,153.47,864.31ZM266.05,540.76c-7.53,0-14.49,2.21-14.49,18.19l1,139.54c0,6,.32,36.21,6.75,38.35a4.26,4.26,0,0,0,1.4.19c10.27,0,57.55-20,57.55-32.48,0-33-.6-141.64-8.31-151.28-8.43-10.53-10.7-11.5-27.07-11.5-3.19,0-6.28-.27-9.27-.54C270.93,541,268.4,540.76,266.05,540.76Z" transform="translate(0 -23.22)"/><path class="cls-2" d="M199.11,459.81c33,0,44.83,1.81,48.7,3.46.35,1.76,1.28,7.7,2.75,26.08,1.62,20.28,18.06,22.47,25.05,22.47a32.23,32.23,0,0,0,5.63-.45l.12,0,.11,0a45.73,45.73,0,0,1,12.47-1.63c14.11,0,33,5.86,42.67,33.74,16.32,46.91,16.85,146.26,11.12,162.48-6.05,17.14-12,28.77-24.53,37.44-4.51,3.12-13,6.88-22.06,10.85-18.08,8-36.78,16.21-40.34,25.46-2.91,7.56.85,19,4.49,30,2.66,8.05,5.68,17.18,3.77,20.24a42.68,42.68,0,0,0-3.23,6.49c-1.91,4.52-3.05,7.25-10.87,9.86-12.15,4-78.55,17.08-101.49,17.08-9.76,0-45.37-.65-79.84-3.53C17.38,855.07,8,848,6.63,845.21,0,832,1.86,823.16,3.82,813.83c.33-1.56.67-3.17,1-4.78.42-2.28,10.15-56.12,10.15-85.29V574.1l-1-106.3c15.35-1,120.64-8,185.18-8M260.72,738c5.23,0,19.61-5.1,32.73-11.6,11.77-5.85,25.82-14.38,25.82-21.88,0-12.4-.1-44.63-1-76.14-1.79-61.73-5.14-72.8-7.51-75.76-8.61-10.77-11.21-11.88-27.85-11.88-3.15,0-6.21-.27-9.18-.54-2.71-.24-5.26-.47-7.66-.47-7.66,0-15.49,2.28-15.49,19.21l1,139.51c0,.09,0,9,.76,18.12,1.44,17.29,4.32,20.41,6.67,21.19a5.41,5.41,0,0,0,1.72.24M199.11,457.81c-70.26,0-187.19,8.12-187.19,8.12l1,108.19V723.76c0,26.29-8.09,73.81-10.11,84.93s-6.07,21.23,2,37.41,125.37,19.21,148.63,19.21,90-13.14,102.12-17.19,10.11-9.1,15.17-17.19-13.15-37.41-8.09-50.55S311.2,754.09,324.34,745s19.21-21.23,25.28-38.42,5.06-117.29-11.12-163.8c-10.34-29.71-31-35.08-44.56-35.08a47.32,47.32,0,0,0-13.07,1.72,31,31,0,0,1-5.26.41c-7.79,0-21.61-2.58-23.05-20.63-2-25.28-3-27.3-3-27.3-5.15-3-24.65-4.08-50.41-4.08ZM260.72,736a3.61,3.61,0,0,1-1.09-.14c-6.06-2-6.06-37.41-6.06-37.41l-1-139.53c0-14.45,5.47-17.19,13.49-17.19,4.89,0,10.72,1,16.84,1,16.18,0,18.2,1,26.29,11.13s8.09,138.52,8.09,150.65c0,11.59-47,31.48-56.55,31.48Z" transform="translate(0 -23.22)"/><path d="M14.51,500.06a8.6,8.6,0,0,0,5.13-5.25c.65-1.82-2.25-2.61-2.89-.8a5.35,5.35,0,0,1-3,3.15A1.55,1.55,0,0,0,12.67,499a1.51,1.51,0,0,0,1.84,1.05Z" transform="translate(0 -23.22)"/><path d="M13.78,493.56l2.45-3.28a1.5,1.5,0,0,0-.54-2,1.54,1.54,0,0,0-2,.54L11.19,492a1.5,1.5,0,0,0,.54,2,1.53,1.53,0,0,0,2-.53Z" transform="translate(0 -23.22)"/><path d="M12.81,486.1a13.76,13.76,0,0,1,3.68-4.28,1.57,1.57,0,0,0,.54-2.06,1.51,1.51,0,0,0-2.06-.53,17.51,17.51,0,0,0-4.75,5.35,1.5,1.5,0,0,0,2.59,1.52Z" transform="translate(0 -23.22)"/><path d="M27.36,472.61l3.25,2.48a1.51,1.51,0,0,0,2-.54,1.53,1.53,0,0,0-.53-2.05L28.87,470a1.51,1.51,0,0,0-2.05.54,1.53,1.53,0,0,0,.54,2.05Z" transform="translate(0 -23.22)"/><path d="M33.71,472.12a2.76,2.76,0,0,1,2.66,2.22c.42,1.89,3.31,1.09,2.89-.8a5.78,5.78,0,0,0-5.55-4.42,1.5,1.5,0,0,0,0,3Z" transform="translate(0 -23.22)"/><path d="M39.81,469.77a17.7,17.7,0,0,0,5.35,4.77A1.5,1.5,0,0,0,46.67,472a14,14,0,0,1-4.27-3.69,1.54,1.54,0,0,0-2-.54,1.51,1.51,0,0,0-.54,2Z" transform="translate(0 -23.22)"/><path d="M47.86,469.84a11.84,11.84,0,0,0,3.93,4.55,1.51,1.51,0,0,0,2.05-.54,1.53,1.53,0,0,0-.53-2.05,8.89,8.89,0,0,1-2.86-3.48,1.5,1.5,0,0,0-2.05-.53,1.53,1.53,0,0,0-.54,2Z" transform="translate(0 -23.22)"/><path d="M54.49,471.54a10.86,10.86,0,0,1,3.25,3.19c1,1.61,3.65.11,2.59-1.51A14.34,14.34,0,0,0,56,469c-1.63-1-3.14,1.56-1.51,2.59Z" transform="translate(0 -23.22)"/><path d="M61.32,470.06l3.35,3.19c1.39,1.34,3.52-.78,2.12-2.12l-3.35-3.19c-1.39-1.34-3.52.78-2.12,2.12Z" transform="translate(0 -23.22)"/><path d="M68.45,469a17.46,17.46,0,0,0,5.35,4.77,1.5,1.5,0,0,0,1.51-2.59A14,14,0,0,1,71,467.44,1.54,1.54,0,0,0,69,466.9a1.5,1.5,0,0,0-.54,2.05Z" transform="translate(0 -23.22)"/><path d="M78.12,470.11l5.63,4.22c1.54,1.16,3-1.44,1.51-2.59l-5.63-4.22c-1.55-1.15-3,1.45-1.51,2.59Z" transform="translate(0 -23.22)"/><path d="M87.79,469a3.77,3.77,0,0,0,4,3.84,1.5,1.5,0,0,0,0-3,1.88,1.88,0,0,1-.41,0c.21,0,0,0-.08,0s.16.08-.08,0,.07.13-.15-.1c0,0-.25-.3-.16-.16s-.09-.17-.1-.2c.12.24,0-.11,0-.17,0,.26,0,0,0-.15a1.5,1.5,0,0,0-3,0Z" transform="translate(0 -23.22)"/><path d="M243.91,498.46q1.43,28.23,1.65,56.49a1.5,1.5,0,0,0,3,0q-.23-28.26-1.65-56.49c-.1-1.92-3.1-1.93-3,0Z" transform="translate(0 -23.22)"/><path d="M249,519.78l4-1.88a1.51,1.51,0,0,0,.54-2,1.54,1.54,0,0,0-2.06-.54l-4,1.88a1.5,1.5,0,0,0,1.51,2.59Z" transform="translate(0 -23.22)"/><path d="M248.09,526.89l4.83-3.38c1.58-1.09.08-3.69-1.51-2.59l-4.84,3.38c-1.57,1.09-.07,3.7,1.52,2.59Z" transform="translate(0 -23.22)"/><path d="M248.89,531.13a9.33,9.33,0,0,0,6-2.14,1.51,1.51,0,0,0,0-2.12,1.54,1.54,0,0,0-2.12,0,6,6,0,0,1-3.84,1.26,1.5,1.5,0,0,0,0,3Z" transform="translate(0 -23.22)"/><path d="M262.92,537.33l4.05,2.52c1.65,1,3.15-1.57,1.52-2.59l-4.05-2.52c-1.65-1-3.15,1.57-1.52,2.59Z" transform="translate(0 -23.22)"/><path d="M267.27,535.24a9.62,9.62,0,0,0,4.59,4.64,1.54,1.54,0,0,0,2.06-.54,1.52,1.52,0,0,0-.54-2.05,7.08,7.08,0,0,1-3.52-3.57,1.52,1.52,0,0,0-2.05-.54,1.54,1.54,0,0,0-.54,2.06Z" transform="translate(0 -23.22)"/><path d="M275.37,534.46l3.26,4.92c1.06,1.6,3.66.1,2.59-1.51L278,533c-1.06-1.61-3.66-.1-2.59,1.51Z" transform="translate(0 -23.22)"/><path d="M291.53,533.68a8.42,8.42,0,0,0,2.15,5.12c1.29,1.44,3.41-.69,2.13-2.13a5,5,0,0,1-1.28-3,1.54,1.54,0,0,0-1.5-1.5,1.5,1.5,0,0,0-1.5,1.5Z" transform="translate(0 -23.22)"/><path d="M299.7,536.55l.85,4.09c.39,1.88,3.28,1.09,2.89-.8l-.85-4.09c-.39-1.89-3.28-1.09-2.89.8Z" transform="translate(0 -23.22)"/><path d="M315,552.74a304.71,304.71,0,0,1,8.83,38.69c.3,1.9,3.19,1.09,2.89-.8A302.85,302.85,0,0,0,317.92,552c-.55-1.85-3.44-1.06-2.89.79Z" transform="translate(0 -23.22)"/><path d="M336.71,577.48,335.07,584c-.47,1.87,2.42,2.67,2.89.8l1.64-6.54c.48-1.88-2.42-2.68-2.89-.8Z" transform="translate(0 -23.22)"/><path d="M340.65,584l-2.51,9a1.51,1.51,0,0,0,2.9.8l2.5-9a1.5,1.5,0,0,0-2.89-.8Z" transform="translate(0 -23.22)"/><path d="M342.61,592.92a13.69,13.69,0,0,1-1.13,9.43c-.87,1.72,1.72,3.24,2.59,1.51a17,17,0,0,0,1.43-11.74c-.43-1.88-3.32-1.08-2.89.8Z" transform="translate(0 -23.22)"/><path d="M343.4,605.32l-1.83,9c-.38,1.89,2.51,2.69,2.9.8l1.83-9c.38-1.88-2.51-2.69-2.9-.8Z" transform="translate(0 -23.22)"/><path d="M344.74,615.88l-3.14,8.24c-.69,1.8,2.21,2.58,2.89.79l3.14-8.23c.69-1.8-2.21-2.58-2.89-.8Z" transform="translate(0 -23.22)"/><path d="M303.53,731.87c14-7.91,21.71-21.59,23.2-37.4.94-9.93.5-20,.53-30l.11-31.8a1.5,1.5,0,0,0-3,0c-.06,18.24.27,36.53-.25,54.76-.49,17.39-6.32,33-22.1,41.85a1.5,1.5,0,0,0,1.51,2.59Z" transform="translate(0 -23.22)"/><path d="M336.69,709.84a25,25,0,0,0,6.09-8.86c.74-1.78-2.16-2.56-2.89-.8a21.52,21.52,0,0,1-5.32,7.54c-1.42,1.31.71,3.43,2.12,2.12Z" transform="translate(0 -23.22)"/><path d="M336.73,702.53a18.43,18.43,0,0,0,6.11-9.72c.47-1.87-2.42-2.67-2.9-.8a15.63,15.63,0,0,1-5.33,8.39c-1.49,1.24.65,3.35,2.12,2.13Z" transform="translate(0 -23.22)"/><path d="M337.28,690.58a13.21,13.21,0,0,0,6.36-7.59c.61-1.83-2.29-2.62-2.89-.8a10.13,10.13,0,0,1-5,5.8c-1.71.9-.19,3.49,1.52,2.59Z" transform="translate(0 -23.22)"/><path d="M339.5,680.15a47.47,47.47,0,0,0,4.81-9.48c.68-1.81-2.21-2.59-2.89-.8a44.33,44.33,0,0,1-4.51,8.77c-1.07,1.62,1.53,3.12,2.59,1.51Z" transform="translate(0 -23.22)"/><path d="M343.46,669l2.47-9.82c.47-1.87-2.42-2.67-2.89-.8l-2.47,9.82c-.48,1.87,2.42,2.67,2.89.8Z" transform="translate(0 -23.22)"/><path d="M344.3,656l.82-4.09c.39-1.89-2.51-2.69-2.89-.8l-.83,4.09c-.38,1.88,2.51,2.69,2.9.8Z" transform="translate(0 -23.22)"/><path d="M248.19,776.79a3.85,3.85,0,0,1,5.66.81c1,1.63,3.63.13,2.6-1.51a6.9,6.9,0,0,0-10.38-1.42c-1.44,1.3.69,3.41,2.12,2.12Z" transform="translate(0 -23.22)"/><path d="M253.8,769a6.23,6.23,0,0,1,5.21,2.79c1.06,1.6,3.66.1,2.59-1.52a9.38,9.38,0,0,0-7.8-4.27,1.5,1.5,0,0,0,0,3Z" transform="translate(0 -23.22)"/><path d="M259.93,763.16l5.27,6.24c1.25,1.48,3.36-.65,2.12-2.12L262.05,761c-1.25-1.47-3.36.66-2.12,2.12Z" transform="translate(0 -23.22)"/><path d="M267.39,760.58a4.59,4.59,0,0,1,3.57,3.84,1.56,1.56,0,0,0,1.5,1.5,1.5,1.5,0,0,0,1.5-1.5,7.64,7.64,0,0,0-5.77-6.73c-1.88-.45-2.68,2.44-.8,2.89Z" transform="translate(0 -23.22)"/><path d="M272,758.19a9.24,9.24,0,0,1,3.38,3.74c.88,1.72,3.47.21,2.59-1.51a12.15,12.15,0,0,0-4.45-4.82c-1.65-1-3.15,1.57-1.52,2.59Z" transform="translate(0 -23.22)"/><path d="M278.93,755.65l.81.82a1.51,1.51,0,0,0,2.13-2.13l-.82-.81a1.5,1.5,0,1,0-2.12,2.12Z" transform="translate(0 -23.22)"/><path d="M284.32,731.69l-.83,7.36c-.22,1.92,2.79,1.9,3,0l.83-7.36c.22-1.92-2.78-1.9-3,0Z" transform="translate(0 -23.22)"/><path d="M289.22,730.05l-.91,8.17c-.21,1.92,2.79,1.9,3,0l.91-8.17c.22-1.91-2.78-1.9-3,0Z" transform="translate(0 -23.22)"/><path d="M293.53,728.25a2.51,2.51,0,0,1,.12,3.18c-1.23,1.48.88,3.61,2.12,2.13a5.48,5.48,0,0,0,.35-6.82,1.54,1.54,0,0,0-2.05-.54,1.51,1.51,0,0,0-.54,2Z" transform="translate(0 -23.22)"/><path d="M298.94,725.13V730a1.5,1.5,0,0,0,3,0v-4.91a1.5,1.5,0,0,0-3,0Z" transform="translate(0 -23.22)"/><path d="M304.67,721v4.09a1.5,1.5,0,0,0,3,0V721a1.5,1.5,0,0,0-3,0Z" transform="translate(0 -23.22)"/><path d="M309.28,717.11a1.7,1.7,0,0,1,.28,1.87,1.51,1.51,0,0,0,1,1.84,1.53,1.53,0,0,0,1.85-1.05A4.71,4.71,0,0,0,311.4,715c-1.31-1.42-3.43.71-2.12,2.12Z" transform="translate(0 -23.22)"/><path d="M316.28,708.4l-.86,3.26a1.5,1.5,0,0,0,2.89.79l.87-3.26a1.5,1.5,0,0,0-2.9-.79Z" transform="translate(0 -23.22)"/><path d="M316.91,641l5-5.68c1.26-1.45-.85-3.58-2.12-2.12l-5,5.68c-1.26,1.45.85,3.58,2.12,2.12Z" transform="translate(0 -23.22)"/><path d="M318.41,648.77a10.52,10.52,0,0,0,5.56-6.7,1.5,1.5,0,0,0-2.89-.8,7.62,7.62,0,0,1-4.18,4.91c-1.74.83-.22,3.42,1.51,2.59Z" transform="translate(0 -23.22)"/><path d="M321.13,659.1l4.1-4.09a1.51,1.51,0,0,0-2.13-2.13L319,657a1.5,1.5,0,0,0,2.12,2.13Z" transform="translate(0 -23.22)"/><path d="M244.29,739.86A114.7,114.7,0,0,0,247,765.72c.42,1.89,3.31,1.09,2.9-.79a110.63,110.63,0,0,1-2.61-25.07,1.5,1.5,0,0,0-3,0Z" transform="translate(0 -23.22)"/><path d="M251.63,750.47l1.63,3.27a1.5,1.5,0,0,0,2.59-1.51L254.22,749a1.5,1.5,0,0,0-2.59,1.52Z" transform="translate(0 -23.22)"/><path d="M12.48,780.62a35.86,35.86,0,0,0,10.92-9.36c1.16-1.51-.94-3.65-2.12-2.13A33.75,33.75,0,0,1,11,778c-1.69.94-.18,3.53,1.51,2.59Z" transform="translate(0 -23.22)"/><path d="M15.92,772a53.84,53.84,0,0,0,7.79-8.32c1.17-1.54-1.43-3-2.59-1.52a49.54,49.54,0,0,1-7.32,7.72c-1.47,1.26.66,3.38,2.12,2.12Z" transform="translate(0 -23.22)"/><path d="M17,764l7.2-8.32c1.26-1.45-.85-3.58-2.12-2.12l-7.2,8.32c-1.26,1.46.86,3.59,2.12,2.12Z" transform="translate(0 -23.22)"/><path d="M17,756.66l7.76-7.78a1.5,1.5,0,0,0-2.12-2.12l-7.76,7.78A1.5,1.5,0,0,0,17,756.66Z" transform="translate(0 -23.22)"/><path d="M18.61,747.14l4.91-6.54c1.17-1.55-1.44-3-2.59-1.52L16,745.62c-1.16,1.55,1.44,3,2.59,1.52Z" transform="translate(0 -23.22)"/><path d="M18.07,799.64a9.51,9.51,0,0,1,3.42,5.29c.47,1.87,3.36,1.08,2.9-.8a12.25,12.25,0,0,0-4.2-6.62c-1.49-1.19-3.63.92-2.12,2.13Z" transform="translate(0 -23.22)"/><path d="M25.56,800.93a6.59,6.59,0,0,1,2.57,6c-.16,1.93,2.84,1.92,3,0a9.6,9.6,0,0,0-4.06-8.61c-1.56-1.14-3.06,1.46-1.51,2.59Z" transform="translate(0 -23.22)"/><path d="M34.67,801.57a8,8,0,0,1,3.3,4.15c.63,1.81,3.52,1,2.89-.8A11.25,11.25,0,0,0,36.18,799c-1.63-1-3.14,1.55-1.51,2.59Z" transform="translate(0 -23.22)"/><path d="M41.38,801.18l3.35,5.69a1.5,1.5,0,0,0,2.59-1.52L44,799.67a1.5,1.5,0,0,0-2.59,1.51Z" transform="translate(0 -23.22)"/><path d="M49.53,802l1.64,3.28a1.5,1.5,0,0,0,2.59-1.52l-1.64-3.27A1.5,1.5,0,1,0,49.53,802Z" transform="translate(0 -23.22)"/><path d="M37.58,789.32C61.81,804.52,90.81,809,119,807.74c15.75-.7,31.38-3,46.89-5.78s31.71-5,46.63-10.57c1.8-.66,1-3.56-.79-2.89-14,5.2-29.07,7.4-43.74,10-15.57,2.81-31.23,5.26-47,6.09C92.62,806.13,63.48,802,39.1,786.73c-1.64-1-3.15,1.56-1.52,2.59Z" transform="translate(0 -23.22)"/><path d="M203.07,803.39c12.28-.76,25.27-3.27,36.31-8.94,3-1.52,5.88-3.84,6.06-7.43.13-2.73-1.63-5.38-2.4-7.92a36.33,36.33,0,0,1-1.45-11.4c0-1.93-3-1.93-3,0a39,39,0,0,0,1.82,13c.9,2.73,2.69,5.53,1.11,8.2-1.48,2.49-5.2,3.71-7.71,4.71a99.55,99.55,0,0,1-30.74,6.77c-1.92.11-1.93,3.11,0,3Z" transform="translate(0 -23.22)"/><path d="M46,573.35c0,.16-.27-.09,0,.07.1.07.32.05.44.09a3.58,3.58,0,0,1,1.19,1.07,5.26,5.26,0,0,0,3,1.92c1.89.29,2.71-2.6.8-2.89-.93-.14-1.43-.9-2.05-1.55a4.85,4.85,0,0,0-2.29-1.48c-1.64-.44-3.63.14-4,2s2.5,2.69,2.89.79Z" transform="translate(0 -23.22)"/><path d="M51.64,571.37a58.37,58.37,0,0,1,7.1,8c1.14,1.53,3.74,0,2.59-1.52a62.82,62.82,0,0,0-7.57-8.56c-1.41-1.32-3.54.8-2.12,2.12Z" transform="translate(0 -23.22)"/><path d="M59.65,572.37,67,579.74a1.5,1.5,0,0,0,2.12-2.13l-7.36-7.36a1.5,1.5,0,0,0-2.12,2.12Z" transform="translate(0 -23.22)"/><path d="M71,573.57a7.8,7.8,0,0,1,4.78,4.25c.83,1.74,3.42.22,2.59-1.52a10.73,10.73,0,0,0-6.57-5.62c-1.85-.57-2.64,2.32-.8,2.89Z" transform="translate(0 -23.22)"/><path d="M78,570.39l7.51,8c1.33,1.41,3.44-.71,2.12-2.12l-7.51-8c-1.32-1.41-3.44.71-2.12,2.12Z" transform="translate(0 -23.22)"/><path d="M89.13,571.11a11.77,11.77,0,0,0,8,5.88c1.89.38,2.7-2.51.8-2.89a8.91,8.91,0,0,1-6.18-4.5c-.93-1.69-3.52-.18-2.59,1.51Z" transform="translate(0 -23.22)"/><path d="M100.56,573.19l4.09,4.09a1.5,1.5,0,0,0,2.12-2.12l-4.09-4.09a1.5,1.5,0,0,0-2.12,2.12Z" transform="translate(0 -23.22)"/><path d="M109.15,569.26a14.9,14.9,0,0,0,4.51,6.38c1.48,1.21,3.61-.9,2.12-2.12a12.07,12.07,0,0,1-3.74-5c-.67-1.79-3.57-1-2.89.79Z" transform="translate(0 -23.22)"/><path d="M116.92,571.55a20.86,20.86,0,0,0,6.85,5.15c1.74.81,3.27-1.78,1.52-2.59a18.68,18.68,0,0,1-6.25-4.68c-1.27-1.45-3.39.68-2.12,2.12Z" transform="translate(0 -23.22)"/><path d="M232.25,571.48l-5,9c-.94,1.69,1.65,3.2,2.59,1.51l5-9c.93-1.69-1.66-3.2-2.59-1.51Z" transform="translate(0 -23.22)"/><path d="M237.21,571.52l-6.16,10.38a1.5,1.5,0,0,0,2.59,1.51L239.8,573a1.5,1.5,0,0,0-2.59-1.52Z" transform="translate(0 -23.22)"/><path d="M241.31,573.94l-6.75,14.64c-.81,1.74,1.78,3.26,2.59,1.51l6.75-14.63c.8-1.74-1.79-3.27-2.59-1.52Z" transform="translate(0 -23.22)"/><path d="M241.23,581.65a67.86,67.86,0,0,1-6.83,15c-1,1.65,1.59,3.16,2.59,1.51a72,72,0,0,0,7.14-15.73c.58-1.85-2.31-2.64-2.9-.8Z" transform="translate(0 -23.22)"/><path d="M241.93,591.44a100.93,100.93,0,0,1-5.05,12.62c-.83,1.73,1.76,3.26,2.6,1.52a110,110,0,0,0,5.35-13.35c.59-1.84-2.3-2.63-2.9-.79Z" transform="translate(0 -23.22)"/><path d="M191.6,816.85l18.76,1.22c5.79.37,20.44-1,20.46,7.67a1.5,1.5,0,0,0,3,0c0-6.94-6.36-9.39-12.36-10-9.92-.92-19.92-1.29-29.86-1.94-1.93-.12-1.92,2.88,0,3Z" transform="translate(0 -23.22)"/><path d="M19.92,830.18c13.94,6.37,29.05,8.43,44.15,10.08q25.64,2.81,51.44,3.55a646.41,646.41,0,0,0,103.87-5.48c1.89-.25,1.91-3.25,0-3a646.45,646.45,0,0,1-100,5.58q-24.79-.55-49.52-3c-16.42-1.65-33.26-3.35-48.45-10.28-1.74-.79-3.27,1.79-1.51,2.59Z" transform="translate(0 -23.22)"/><path d="M80,813.13A12.52,12.52,0,0,1,85.79,817c1.25,1.48,3.37-.65,2.12-2.12a15.37,15.37,0,0,0-7.11-4.68c-1.85-.59-2.63,2.3-.8,2.89Z" transform="translate(0 -23.22)"/><path d="M88.59,811.52a22.12,22.12,0,0,1,6.82,6.83c1,1.62,3.64.12,2.59-1.52a25.67,25.67,0,0,0-7.9-7.9c-1.63-1-3.14,1.55-1.51,2.59Z" transform="translate(0 -23.22)"/><path d="M99.26,813.89a9,9,0,0,1,4.32,4.46,1.5,1.5,0,0,0,2,.54,1.54,1.54,0,0,0,.54-2,11.47,11.47,0,0,0-5.39-5.54c-1.73-.84-3.25,1.74-1.52,2.59Z" transform="translate(0 -23.22)"/><path d="M105.55,812.84a10.44,10.44,0,0,1,2.83,6c.27,1.91,3.16,1.1,2.9-.8a13.07,13.07,0,0,0-3.61-7.28c-1.34-1.39-3.46.73-2.12,2.12Z" transform="translate(0 -23.22)"/><path d="M111.45,814a6.23,6.23,0,0,1,5,3.63c.83,1.74,3.42.22,2.59-1.51a9.25,9.25,0,0,0-7.55-5.12c-1.92-.19-1.91,2.81,0,3Z" transform="translate(0 -23.22)"/><path d="M117.45,814.45l8,5.22c1.62,1.07,3.12-1.53,1.51-2.59l-8-5.22c-1.62-1.06-3.12,1.54-1.51,2.59Z" transform="translate(0 -23.22)"/><path d="M127.35,815.1l11,6.56a1.5,1.5,0,0,0,1.51-2.6l-11-6.55a1.5,1.5,0,0,0-1.51,2.59Z" transform="translate(0 -23.22)"/><path d="M169.18,550a20.74,20.74,0,0,0,3.48-8.53c.31-1.89-2.58-2.7-2.9-.79a18.75,18.75,0,0,1-3.17,7.81c-1.11,1.58,1.49,3.08,2.59,1.51Z" transform="translate(0 -23.22)"/><path d="M172.72,551.3l2.54-6.51c.7-1.8-2.2-2.58-2.89-.8l-2.54,6.51c-.71,1.8,2.19,2.58,2.89.8Z" transform="translate(0 -23.22)"/><path d="M176.5,555.43a13.43,13.43,0,0,0,5.06-11.11c-.08-1.93-3.08-1.94-3,0a10.66,10.66,0,0,1-4.18,9c-1.51,1.2.62,3.31,2.12,2.12Z" transform="translate(0 -23.22)"/><path d="M18,652.38l4.83-6.61c1.14-1.56-1.46-3.06-2.59-1.51l-4.83,6.6c-1.14,1.56,1.46,3.06,2.59,1.52Z" transform="translate(0 -23.22)"/><path d="M20,644.35a30.46,30.46,0,0,0,5.19-7.63c.83-1.74-1.76-3.26-2.59-1.52a28,28,0,0,1-4.72,7c-1.3,1.42.81,3.55,2.12,2.12Z" transform="translate(0 -23.22)"/><path d="M18.5,635.8l4.16-6.51c1-1.63-1.56-3.13-2.59-1.51l-4.16,6.5c-1.05,1.63,1.55,3.14,2.59,1.52Z" transform="translate(0 -23.22)"/><path d="M17.92,624.05,19.57,620a1.51,1.51,0,0,0-1.05-1.85,1.55,1.55,0,0,0-1.84,1L15,623.25a1.52,1.52,0,0,0,1.05,1.85,1.54,1.54,0,0,0,1.85-1.05Z" transform="translate(0 -23.22)"/><path d="M24,606.1l4.22,19.61c.41,1.88,3.3,1.09,2.9-.8L26.85,605.3c-.4-1.88-3.3-1.09-2.89.8Z" transform="translate(0 -23.22)"/><path d="M235.12,663q-.41,22.92.82,45.82c.1,1.92,3.1,1.93,3,0q-1.23-22.89-.82-45.82c0-1.93-3-1.93-3,0Z" transform="translate(0 -23.22)"/><path d="M333.48,622.41a38.09,38.09,0,0,1-.15,15.59c-.41,1.88,2.48,2.68,2.89.79a42,42,0,0,0,.16-17.18c-.37-1.89-3.27-1.09-2.9.8Z" transform="translate(0 -23.22)"/><path d="M209.64,471.69a105.35,105.35,0,0,1,32.34,3.6,1.51,1.51,0,0,0,.8-2.9,108.05,108.05,0,0,0-33.14-3.7c-1.92.08-1.93,3.08,0,3Z" transform="translate(0 -23.22)"/><path d="M114.7,471.92l62.19,1a1.5,1.5,0,0,0,0-3l-62.19-1c-1.93,0-1.93,3,0,3Z" transform="translate(0 -23.22)"/><path d="M99.26,153.51c8.83,1.32,17.66.47,19.46-9.76,2.43-13.89-.35-28.6-2.22-42.39l-6-44.73c-1.56-11.58-1.58-26.28-12.7-33.18C96.1,22.43,94.6,25,96.24,26c10.12,6.28,9.9,20.88,11.32,31.38l4.73,35c1.59,11.72,3.59,23.48,4.08,35.31.23,5.39.81,12.32-1,17.48-2.4,6.74-9.42,6.28-15.3,5.4-1.89-.29-2.7,2.6-.79,2.89Z" transform="translate(0 -23.22)"/><path d="M51.07,150.47c-7-27.58-10.89-55.8-12.7-84.17C38,59.67,37.52,53,37.43,46.36c-.11-8.12,2.51-14.58,10.62-17.31C54.82,26.76,62.63,27.16,69.7,27s14.07-.23,21.1-.13a1.5,1.5,0,0,0,0-3c-8.31-.11-16.63,0-24.94.25-6.58.24-13.7.09-19.93,2.55-13.12,5.2-11.66,18.22-11.09,30.05,1.53,31.86,5.47,63.64,13.34,94.58.47,1.87,3.37,1.08,2.89-.79Z" transform="translate(0 -23.22)"/><path d="M115.54,149.49a25.13,25.13,0,0,0-5.78-17c-1.22-1.5-3.33.63-2.13,2.12a21.93,21.93,0,0,1,4.91,14.87c-.07,1.93,2.93,1.93,3,0Z" transform="translate(0 -23.22)"/><path d="M117.74,142.14A36.43,36.43,0,0,0,113,125.76a1.5,1.5,0,0,0-2.59,1.51,33.12,33.12,0,0,1,4.31,14.87c.1,1.92,3.1,1.93,3,0Z" transform="translate(0 -23.22)"/><path d="M119.28,135.4a65.42,65.42,0,0,0-5.22-14.67c-.86-1.73-3.45-.21-2.59,1.52a61.55,61.55,0,0,1,4.92,13.95c.42,1.88,3.32,1.09,2.89-.8Z" transform="translate(0 -23.22)"/><path d="M119.73,127.14a21.53,21.53,0,0,0-2.71-8.09c-.6-1.07-5.5-7.57-5-8.52a1.5,1.5,0,0,0-2.59-1.52c-1.33,2.31,1,5,2.17,7,2.14,3.51,4.6,6.94,5.08,11.15.21,1.89,3.21,1.91,3,0Z" transform="translate(0 -23.22)"/><path d="M118.15,113.68a171.26,171.26,0,0,1-7.4-15.54c-.73-1.76-3.63-1-2.89.8q3.45,8.32,7.7,16.26c.92,1.7,3.51.18,2.59-1.52Z" transform="translate(0 -23.22)"/><path d="M116.92,103.07a69.1,69.1,0,0,0-5.23-12.65c-.91-1.71-3.5-.19-2.59,1.51A65.42,65.42,0,0,1,114,103.87c.56,1.84,3.45,1.06,2.89-.8Z" transform="translate(0 -23.22)"/><path d="M115.63,92.94l-5.5-10.58c-.89-1.71-3.48-.2-2.59,1.52L113,94.46c.89,1.71,3.48.2,2.59-1.52Z" transform="translate(0 -23.22)"/><path d="M114.76,85.7a33.91,33.91,0,0,0-7.36-14.18c-1.27-1.46-3.38.67-2.12,2.12a30.59,30.59,0,0,1,6.59,12.86c.46,1.87,3.35,1.08,2.89-.8Z" transform="translate(0 -23.22)"/><path d="M114.07,75a39.86,39.86,0,0,0-6.6-11.56c-1.22-1.5-3.34.63-2.12,2.12a35.38,35.38,0,0,1,5.83,10.24c.66,1.79,3.56,1,2.89-.8Z" transform="translate(0 -23.22)"/><path d="M113.87,66.07a137.46,137.46,0,0,1-8.44-11.36c-1.07-1.6-3.67-.1-2.59,1.52a146,146,0,0,0,8.91,12c1.23,1.49,3.34-.65,2.12-2.12Z" transform="translate(0 -23.22)"/><path d="M113.31,55.61a110.67,110.67,0,0,0-12.7-19.27c-1.22-1.5-3.33.63-2.12,2.12a107.69,107.69,0,0,1,12.23,18.66c.89,1.71,3.48.2,2.59-1.51Z" transform="translate(0 -23.22)"/></g></g></svg>