<svg xmlns="http://www.w3.org/2000/svg" viewBox="0 0 351.74 828.62"><defs><style>.cls-1{fill:#fff;}</style></defs><title>biere fin</title><g id="Calque_2" data-name="Calque 2"><g id="scroll_my_friend" data-name="scroll my friend"><path d="M97.22,273.12l-1.54,14.66c-.2,1.92,2.8,1.91,3,0l1.54-14.66c.2-1.92-2.81-1.9-3,0Z"/><path d="M96.75,291.05A8.9,8.9,0,0,1,97,301.49c-1.07,1.61,1.53,3.11,2.59,1.51a12,12,0,0,0-.69-14.07c-1.19-1.52-3.29.62-2.12,2.12Z"/><path d="M98.79,301.81a12.86,12.86,0,0,1,.95,8.26c-.4,1.88,2.49,2.68,2.89.79a16.18,16.18,0,0,0-1.25-10.56c-.83-1.74-3.41-.22-2.59,1.51Z"/><path d="M99.81,316.22l1.33,5.34c.47,1.87,3.37,1.08,2.9-.8l-1.34-5.34c-.47-1.87-3.36-1.08-2.89.8Z"/><path d="M127.31,468.45,125,485.67c-.25,1.91,2.75,1.89,3,0l2.3-17.22c.25-1.91-2.75-1.89-3,0Z"/><path d="M127.4,488.38,127,503.05c0,1.93,3,1.93,3,0l.44-14.67c.06-1.93-2.94-1.93-3,0Z"/><path d="M129.21,500.37l-1.51,17.34c-.16,1.92,2.84,1.91,3,0l1.51-17.34c.17-1.92-2.83-1.91-3,0Z"/><path d="M129.27,531.23a1.5,1.5,0,0,0,0-3,1.5,1.5,0,0,0,0,3Z"/><path d="M129.1,537.74v5.34a1.5,1.5,0,0,0,3,0v-5.34a1.5,1.5,0,0,0-3,0Z"/><path d="M131.77,548.42v5.34a1.5,1.5,0,0,0,3,0v-5.34a1.5,1.5,0,0,0-3,0Z"/><path class="cls-1" d="M97.3,58c-1.2-.51-1.38-.59-.55-.23C93,51,83,54.32,82.77,61.52a140,140,0,0,0,4,37.92c1.7,7,12.94,7.29,14.46,0a125.33,125.33,0,0,0,.68-47.9c-1.45-8.22-15.72-6.43-14.73,2l3,25.5c.47,4,3.11,7.5,7.5,7.5,3.92,0,7.68-3.44,7.5-7.5l-1-22.17c-.38-8.57-12-10-14.73-2a14.9,14.9,0,0,0,0,10c3.26,9,17.76,5.12,14.47-4a1.42,1.42,0,0,1,0-2l-14.74-2,1,22.17h15l-3-25.5-14.74,2a105.54,105.54,0,0,1-.67,39.92h14.46a124.57,124.57,0,0,1-3.41-33.93l-14,3.78a12.53,12.53,0,0,0,5.92,5.61c3.76,1.61,8,1.09,10.27-2.69,1.87-3.13,1-8.67-2.69-10.26Z"/><path class="cls-1" d="M52.81,79c-.73,9.51-1.48,19.33-.89,28.87.22,3.58.95,7,3.75,9.49,3.83,3.41,9.12,2.55,13.84,2.37L99,118.52c7.5-.29,17,.59,22.1-6.15,5.33-7.08,2.12-18.41,1.37-26.49l-2.69-29.37-2.61-28.38c-.45-4.9-.84-9.8-1.35-14.69-.45-4.44-1.18-8.68-5.14-11.38S102,0,97.43.22L80.55,1,46.8,2.43C43,2.59,39,5.74,39.3,9.93l4.29,51.93c1.38,16.7,1.28,34,8.82,49.36,4.26,8.66,17.2,1.07,13-7.57C58.64,90,59.5,72.82,58.27,57.94l-4-48-7.5,7.5,29.78-1.3,15.89-.7,6-.26,4-.17c2.38.23,1.84-.62-1.62-2.53-.7.32,1.1,11.94,1.26,13.7l1.44,15.66,2.61,28.38c.86,9.47,1.77,18.93,2.6,28.39q.18,1.74.3,3.48c-.31,1.7-.12,2,.57.89-.89.61-3.72.28-4.6.32-4.59.19-9.19.36-13.78.54l-13.79.54-7.87.31-3.94.15q-4.92-.48,1.35,3c.85-.52,0-12.33.06-13.48.14-5.14.44-10.26.83-15.39.75-9.62-14.25-9.57-15,0Z"/><path class="cls-1" d="M49.81,31l8.5,62.68c1.15,8.52,14.73,6.24,14.73-2q0-35.72-3.29-71.29c-.88-9.43-15.19-9.81-15,0a556.13,556.13,0,0,0,5.93,70.82c.54,3.67,4.94,5.82,8.23,5.37C72.84,96,75,93,75.41,89.2a293.81,293.81,0,0,0-.18-62.47c-1-9.46-14.44-9.82-15,0a216.84,216.84,0,0,0,7.26,69c2.35,8.69,13.84,6,14.73-2a270.69,270.69,0,0,0-1-66.64C80,18.5,66.63,21,66.45,29.1a268.85,268.85,0,0,0,5.61,60.62c1.44,7,13.3,7.34,14.46,0a185.72,185.72,0,0,0-.83-63.58C84,17.31,71.62,20.25,71,28.13a106.55,106.55,0,0,0,5.4,43.43c2.18,6.37,13.07,7.87,14.46,0a152.66,152.66,0,0,0,.71-48.92c-1-7.17-13.42-7.16-14.47,0a56.94,56.94,0,0,0,5.16,34.12c3.15,6.46,11.53,3.56,13.71-1.8A39,39,0,0,0,96,25.89c-2.9-7.27-15.07-7.15-14.73,2a48.17,48.17,0,0,0,8.16,25.56c3.78,5.55,11.44,4.36,13.71-1.79a72.66,72.66,0,0,0,4.22-20.24l-14.73,2,1.92,6.39c2.33,7.69,15.9,6.71,14.73-2a131.79,131.79,0,0,0-4.16-20.23c-1.93-6.53-10.07-7-13.71-1.79a25.09,25.09,0,0,0-4.17,12l14-3.78A36.94,36.94,0,0,0,68.44,6.48c-8.42.36-10.22,12.21-2,14.73l5.29,1.63V8.38c-9.54,2.45-9.48,12.44-8.13,20.28a161.25,161.25,0,0,1,2.25,31.87A157.65,157.65,0,0,1,62,91.29c-2,8.79-3.83,18.34,6.4,22.41,3.91,1.56,8-1.74,9.22-5.24L80.83,99H66.37l1.52,8.19c1,5.19,9.15,7.66,12.53,3.31a50.86,50.86,0,0,0,10-20.31c2.13-9.45-11.38-13.12-14.46-4a21.94,21.94,0,0,0,5.81,23c3.42,3.24,9.39,2.82,11.78-1.52a47.36,47.36,0,0,0,5.88-28.34c-1.08-9.55-14.1-9.74-15,0-.57,6.18-.27,13.14,1.94,19,2.34,6.21,9,10.26,15.25,6.45,5.4-3.29,6.32-10.35,7.1-16a74.19,74.19,0,0,0-.27-20.62c-.51-3.67-5-5.81-8.23-5.37-3.87.52-6.18,3.59-6.5,7.37a106.66,106.66,0,0,0,2.67,34c1.63,6.81,13.33,7.49,14.47,0a105.56,105.56,0,0,0-1.72-41.51c-2.13-8.68-14-6-14.73,2a116.27,116.27,0,0,0,1.92,33.19c1.72,8.7,14.23,6,14.73-2a175,175,0,0,0-2.39-40.88c-1.27-7.37-12.87-6.93-14.46,0l-1.7,7.42c-2.16,9.4,12.3,13.41,14.46,4l1.7-7.42H94.16A158.23,158.23,0,0,1,96,95.82l14.73-2a102.56,102.56,0,0,1-1.38-29.21l-14.73,2a86.1,86.1,0,0,1,1.71,33.53h14.47a93.28,93.28,0,0,1-2.14-30l-14.73,2a55.19,55.19,0,0,1,.24,12.12,44.39,44.39,0,0,1-.7,5c-.23,1.16-.49,2.31-.79,3.45q-.78,1.89,1.54-1.1h4c2.37.84,1.61,2.38,1.7-.22,0-1.3-.55-2.8-.67-4.11a44.8,44.8,0,0,1,.13-7.94h-15a33.75,33.75,0,0,1-3.83,20.77l11.78-1.52c-2.57-2.43-3.08-5-2-8.37l-14.46-4a34.27,34.27,0,0,1-6.1,13.69l12.54,3.31L80.83,95c-1.44-7.8-12.29-6.43-14.46,0l-3.19,9.45,9.23-5.24q2.46,4.28,2.73,2.13l0-.38c.78-.81.87-3.58,1.15-4.79q1.29-5.52,2.2-11.12a185.1,185.1,0,0,0,2.36-23.61A169.49,169.49,0,0,0,80,38.83q-.58-5.7-1.49-11.36a45.56,45.56,0,0,0-.82-4.81c-.83-3,1.88-.82-2,.18,7.36-1.89,6.9-12.34,0-14.46L70.44,6.75l-2,14.73A21.8,21.8,0,0,1,88.28,31.56c4.25,6.74,13.11,3.34,14-3.79a10,10,0,0,1,2.13-4.42L90.67,21.56A107.58,107.58,0,0,1,94.29,37.8l14.74-2-1.93-6.38c-2.51-8.34-14.13-6.35-14.73,2a59,59,0,0,1-3.68,16.25l13.71-1.79a33.47,33.47,0,0,1-6.12-18l-14.73,2A26.76,26.76,0,0,1,81.46,51l13.7-1.79a39.05,39.05,0,0,1-3.64-22.56H77.05a129.33,129.33,0,0,1-.7,41H90.81A95.38,95.38,0,0,1,86,28.13l-14.73,2a164.25,164.25,0,0,1,.84,55.6H86.52A251,251,0,0,1,81.45,29.1l-14.74,2a255.6,255.6,0,0,1,.51,62.66l14.73-2a203.4,203.4,0,0,1-6.72-65h-15a293.81,293.81,0,0,1,.18,62.47l14.74-2a524.46,524.46,0,0,1-5.4-66.83h-15Q58,55.94,58,91.66l14.73-2L64.27,27c-.54-4-5.7-6.23-9.23-5.24C50.71,23,49.26,26.92,49.81,31Z"/><path class="cls-1" d="M140.51,659.45q-5.17-106.89-12.7-213.66T110.4,232.45q-5.61-60.46-12-120.87c-.43-4-3.15-7.5-7.5-7.5-3.73,0-7.93,3.45-7.5,7.5Q94.63,218,103.51,324.68t15.37,213.5q3.69,60.62,6.63,121.27c.46,9.61,15.46,9.67,15,0Z"/><path d="M78.5,19.74a12.83,12.83,0,0,0-5.66,10.42,1.51,1.51,0,0,0,2.56,1.06L82.63,24l-2.36-1.81A102.85,102.85,0,0,0,69.86,40.61a1.5,1.5,0,0,0,2.59,1.51A84.44,84.44,0,0,1,83.24,30.24l-2.35-1.82A155.08,155.08,0,0,0,67.76,52.37a1.5,1.5,0,0,0,2.59,1.52A122,122,0,0,1,88.43,32l-2.12-2.12A173.59,173.59,0,0,0,66.86,55.61c-.74,1.2.83,3,2,2A154.22,154.22,0,0,0,89.67,38.44C91,37,88.94,35,87.55,36.32A127.19,127.19,0,0,0,66.85,63a1.51,1.51,0,0,0,2.36,1.82L93.4,42.11c1.41-1.32-.7-3.41-2.12-2.12A74.94,74.94,0,0,0,72.19,67.26c-.58,1.41,1.55,2.52,2.5,1.46L97.77,43.1,95.65,41A253.17,253.17,0,0,0,76.41,68.51c-.91,1.51,1.11,2.91,2.35,1.82A222.85,222.85,0,0,0,99.4,49.51c1.25-1.45-.82-3.56-2.12-2.12A139.38,139.38,0,0,0,79.71,71.46c-.82,1.43,1.23,3.15,2.36,1.81L100,52.11,97.65,50.3,84.16,76a1.51,1.51,0,0,0,2.36,1.81,175.23,175.23,0,0,0,16.54-16.5l-2.35-1.82L91.42,77.55c-.73,1.42,1.22,3.2,2.36,1.81A61.94,61.94,0,0,1,104.06,69.3L101.8,68a9.36,9.36,0,0,1-2.68,8.41c-1.33,1.4.79,3.52,2.13,2.13A12.21,12.21,0,0,0,104.8,68c-.13-1-1.24-2.08-2.26-1.3A65.71,65.71,0,0,0,91.66,77.24L94,79.06,103.3,61c.73-1.44-1.18-3.17-2.36-1.82A175.23,175.23,0,0,1,84.4,75.64l2.35,1.82,13.49-25.65C101,50.38,99,48.63,97.88,50L80,71.15,82.31,73A135.12,135.12,0,0,1,99.4,49.51l-2.12-2.12A224.08,224.08,0,0,1,76.64,68.21L79,70A248.69,248.69,0,0,1,97.77,43.1C99,41.63,97,39.51,95.65,41L72.57,66.6l2.51,1.46A71.66,71.66,0,0,1,93.4,42.11L91.28,40,67.09,62.69l2.35,1.81A124.69,124.69,0,0,1,89.67,38.44l-2.12-2.12A150.89,150.89,0,0,1,67.4,55.07l2,2.06A169.72,169.72,0,0,1,88.43,32a1.5,1.5,0,0,0-2.12-2.12A125.7,125.7,0,0,0,67.76,52.37l2.59,1.52a155.18,155.18,0,0,1,13.13-24c1-1.47-1.15-2.92-2.36-1.82a88.41,88.41,0,0,0-11.26,12.5l2.59,1.51A103.81,103.81,0,0,1,82.86,23.73c1-1.41-1.17-3-2.36-1.82L73.28,29.1l2.56,1.06A9.58,9.58,0,0,1,80,22.33c1.56-1.12.06-3.72-1.51-2.59Z"/><path d="M93.88,114.71q1.62,123,12.8,245.62,3.19,34.92,7.18,69.78c.21,1.89,3.21,1.92,3,0Q102.94,307.89,98.57,184.84q-1.25-35.06-1.69-70.13c0-1.93-3-1.93-3,0Z"/><path d="M121.16,470.28,136,638.55c.16,1.91,3.16,1.93,3,0L124.16,470.28c-.17-1.9-3.17-1.92-3,0Z"/><path d="M237,514.05a164.58,164.58,0,0,0,52.18-.7c1.9-.33,1.1-3.22-.8-2.89a160.12,160.12,0,0,1-50.58.7c-1.89-.28-2.7,2.61-.8,2.89Z"/><path d="M240.51,522.27a10.21,10.21,0,0,0,7.51,2.58c1.91-.13,1.93-3.13,0-3a7.19,7.19,0,0,1-5.39-1.7c-1.45-1.26-3.58.85-2.12,2.12Z"/><path class="cls-1" d="M334.79,509.62c-16-46-57-33-57-33s-26,5-28-20-3-27-3-27c-19-11-235,4-235,4l1,107v148c0,26-8,73-10,84s-6,21,2,37,124,19,147,19,89-13,101-17,10-9,15-17-13-37-8-50,48-26,61-35,19-21,25-38S350.79,555.62,334.79,509.62Zm-78,191c-6-2-6-37-6-37l-1-138c0-23,14-16,30-16s18,1,26,11,8,137,8,149S262.79,702.62,256.79,700.62Z"/><path d="M18.51,463.36a8.59,8.59,0,0,0,5.13-5.24c.65-1.83-2.25-2.61-2.89-.8a5.38,5.38,0,0,1-3,3.15,1.54,1.54,0,0,0-1,1.84,1.5,1.5,0,0,0,1.84,1.05Z"/><path d="M17.78,456.86l2.45-3.27a1.5,1.5,0,0,0-.54-2,1.53,1.53,0,0,0-2.05.53l-2.45,3.28a1.5,1.5,0,0,0,.54,2,1.54,1.54,0,0,0,2.05-.54Z"/><path d="M16.81,449.4a13.88,13.88,0,0,1,3.68-4.28,1.55,1.55,0,0,0,.54-2.05,1.53,1.53,0,0,0-2.06-.54,17.43,17.43,0,0,0-4.75,5.36,1.5,1.5,0,0,0,2.59,1.51Z"/><path d="M31.36,435.92l3.25,2.48a1.51,1.51,0,0,0,2-.54,1.53,1.53,0,0,0-.53-2.05l-3.26-2.48a1.5,1.5,0,0,0-2,.53,1.55,1.55,0,0,0,.54,2.06Z"/><path d="M37.71,435.42a2.78,2.78,0,0,1,2.66,2.23c.42,1.88,3.31,1.08,2.89-.8a5.79,5.79,0,0,0-5.55-4.43,1.5,1.5,0,0,0,0,3Z"/><path d="M43.81,433.07a17.57,17.57,0,0,0,5.35,4.77,1.5,1.5,0,0,0,1.51-2.59,14,14,0,0,1-4.27-3.69,1.55,1.55,0,0,0-2-.54,1.51,1.51,0,0,0-.54,2.05Z"/><path d="M51.86,433.14a11.87,11.87,0,0,0,3.93,4.56,1.5,1.5,0,0,0,1.52-2.59,9,9,0,0,1-2.86-3.48,1.51,1.51,0,0,0-2.05-.54,1.53,1.53,0,0,0-.54,2.05Z"/><path d="M58.49,434.85A10.75,10.75,0,0,1,61.74,438c1,1.6,3.65.1,2.59-1.52A14.42,14.42,0,0,0,60,432.26c-1.63-1-3.14,1.55-1.51,2.59Z"/><path d="M65.32,433.36l3.35,3.2c1.39,1.33,3.52-.78,2.12-2.12l-3.35-3.2c-1.39-1.33-3.52.79-2.12,2.12Z"/><path d="M72.45,432.26A17.59,17.59,0,0,0,77.8,437a1.5,1.5,0,0,0,1.51-2.59,14,14,0,0,1-4.27-3.7A1.56,1.56,0,0,0,73,430.2a1.51,1.51,0,0,0-.54,2.06Z"/><path d="M82.12,433.42l5.63,4.22c1.54,1.16,3-1.45,1.51-2.59l-5.63-4.22c-1.55-1.16-3,1.45-1.51,2.59Z"/><path d="M91.79,432.34a3.77,3.77,0,0,0,4,3.84,1.54,1.54,0,0,0,1.5-1.5c0-.74-.66-1.6-1.5-1.5a2.82,2.82,0,0,1-.41,0c.21,0,0,0-.08,0s.17.07-.08-.05.07.13-.15-.1c0,0-.25-.29-.16-.16s-.09-.17-.1-.2c.12.25,0-.11,0-.16,0,.25,0,0,0-.15a1.5,1.5,0,0,0-1.5-1.5,1.52,1.52,0,0,0-1.5,1.5Z"/><path d="M247.91,461.77q1.43,28.22,1.65,56.48a1.5,1.5,0,0,0,3,0q-.23-28.26-1.65-56.48c-.1-1.93-3.1-1.94-3,0Z"/><path d="M253,483.09l4-1.88a1.52,1.52,0,0,0,.54-2,1.54,1.54,0,0,0-2.06-.54l-4,1.88a1.51,1.51,0,0,0-.54,2.05,1.53,1.53,0,0,0,2.05.54Z"/><path d="M252.09,490.19l4.84-3.37c1.57-1.1.07-3.7-1.52-2.59l-4.84,3.37c-1.57,1.1-.07,3.7,1.52,2.59Z"/><path d="M252.89,494.43a9.32,9.32,0,0,0,6-2.13,1.51,1.51,0,0,0,0-2.12,1.53,1.53,0,0,0-2.12,0,6,6,0,0,1-3.84,1.25,1.5,1.5,0,0,0,0,3Z"/><path d="M266.92,500.63l4.05,2.53c1.65,1,3.15-1.57,1.52-2.59L268.44,498c-1.65-1-3.15,1.57-1.52,2.59Z"/><path d="M271.27,498.54a9.69,9.69,0,0,0,4.59,4.65,1.55,1.55,0,0,0,2.06-.54,1.52,1.52,0,0,0-.54-2,7.16,7.16,0,0,1-3.52-3.57,1.51,1.51,0,0,0-2.05-.54,1.53,1.53,0,0,0-.54,2.05Z"/><path d="M279.37,497.77l3.26,4.92c1.06,1.6,3.66.1,2.59-1.52L282,496.25c-1.06-1.6-3.66-.1-2.59,1.52Z"/><path d="M295.53,497a8.37,8.37,0,0,0,2.15,5.12c1.29,1.44,3.41-.68,2.13-2.12a5,5,0,0,1-1.28-3,1.54,1.54,0,0,0-1.5-1.5,1.51,1.51,0,0,0-1.5,1.5Z"/><path d="M303.7,499.86l.85,4.08c.39,1.89,3.28,1.09,2.89-.8l-.85-4.08c-.39-1.89-3.28-1.09-2.89.8Z"/><path d="M319,516.05a305,305,0,0,1,8.83,38.68c.3,1.9,3.19,1.1,2.89-.8a303.24,303.24,0,0,0-8.83-38.68c-.55-1.84-3.44-1.06-2.89.8Z"/><path d="M340.71,540.78l-1.64,6.55c-.47,1.87,2.42,2.67,2.89.79l1.64-6.54c.48-1.87-2.42-2.67-2.89-.8Z"/><path d="M344.65,547.29l-2.51,9a1.51,1.51,0,0,0,2.9.8l2.5-9a1.5,1.5,0,0,0-2.89-.8Z"/><path d="M346.61,556.22a13.69,13.69,0,0,1-1.13,9.43c-.87,1.72,1.72,3.24,2.59,1.52a17,17,0,0,0,1.43-11.74c-.43-1.88-3.32-1.09-2.89.79Z"/><path d="M347.4,568.63l-1.83,9c-.38,1.88,2.51,2.69,2.9.8l1.83-9c.38-1.89-2.51-2.69-2.9-.8Z"/><path d="M348.74,579.19l-3.14,8.23c-.69,1.81,2.21,2.59,2.89.8l3.14-8.23c.69-1.81-2.21-2.59-2.89-.8Z"/><path d="M307.53,695.17c14-7.91,21.71-21.59,23.2-37.39.94-9.93.5-20,.53-30l.11-31.8a1.5,1.5,0,0,0-3,0c-.06,18.24.27,36.53-.25,54.76-.49,17.4-6.32,32.95-22.1,41.85a1.5,1.5,0,0,0,1.51,2.59Z"/><path d="M347.46,632.34l2.47-9.81c.47-1.88-2.42-2.67-2.89-.8l-2.47,9.81c-.48,1.88,2.42,2.68,2.89.8Z"/><path d="M348.3,619.26l.82-4.09c.39-1.88-2.51-2.69-2.89-.79l-.83,4.08c-.38,1.89,2.51,2.7,2.9.8Z"/><path d="M320.91,604.29l5-5.69c1.26-1.45-.85-3.58-2.12-2.12l-5,5.69c-1.26,1.45.85,3.58,2.12,2.12Z"/><path d="M322.41,612.08a10.57,10.57,0,0,0,5.56-6.7,1.5,1.5,0,0,0-2.89-.8,7.67,7.67,0,0,1-4.18,4.91c-1.74.83-.22,3.42,1.51,2.59Z"/><path d="M325.13,622.4l4.1-4.09a1.5,1.5,0,0,0-2.13-2.12L323,620.28a1.5,1.5,0,0,0,2.12,2.12Z"/><path d="M16.48,743.93a35.75,35.75,0,0,0,10.92-9.37c1.16-1.51-.94-3.65-2.12-2.12A33.88,33.88,0,0,1,15,741.34c-1.69.94-.18,3.53,1.51,2.59Z"/><path d="M19.92,735.28A53.45,53.45,0,0,0,27.71,727c1.17-1.53-1.43-3-2.59-1.51a50.44,50.44,0,0,1-7.32,7.72c-1.47,1.26.66,3.37,2.12,2.12Z"/><path d="M21,727.32l7.2-8.32c1.26-1.46-.85-3.59-2.12-2.13l-7.2,8.33c-1.26,1.45.86,3.58,2.12,2.12Z"/><path d="M21,720l7.76-7.78a1.5,1.5,0,0,0-2.12-2.13l-7.76,7.79A1.5,1.5,0,0,0,21,720Z"/><path d="M22.61,710.44l4.91-6.54c1.17-1.54-1.44-3-2.59-1.51L20,708.93c-1.16,1.54,1.44,3,2.59,1.51Z"/><path d="M22.07,762.94a9.54,9.54,0,0,1,3.42,5.29c.47,1.87,3.36,1.08,2.9-.8a12.23,12.23,0,0,0-4.2-6.61c-1.49-1.19-3.63.92-2.12,2.12Z"/><path d="M29.56,764.24a6.59,6.59,0,0,1,2.57,6c-.16,1.92,2.84,1.91,3,0a9.6,9.6,0,0,0-4.06-8.61c-1.56-1.15-3.06,1.46-1.51,2.59Z"/><path d="M38.67,764.87A8,8,0,0,1,42,769c.63,1.81,3.52,1,2.89-.8a11.28,11.28,0,0,0-4.68-6c-1.63-1-3.14,1.56-1.51,2.59Z"/><path d="M45.38,764.49l3.35,5.68a1.5,1.5,0,0,0,2.59-1.51L48,763a1.5,1.5,0,0,0-2.59,1.51Z"/><path d="M53.53,765.32l1.64,3.27a1.51,1.51,0,0,0,2,.54,1.53,1.53,0,0,0,.54-2l-1.64-3.27a1.51,1.51,0,0,0-2-.54,1.53,1.53,0,0,0-.54,2.05Z"/><path d="M41.58,752.62C65.81,767.82,94.81,772.29,123,771c15.75-.7,31.38-3,46.89-5.77s31.71-5,46.63-10.57c1.8-.67,1-3.57-.79-2.9-14,5.2-29.07,7.4-43.74,10.05-15.57,2.82-31.23,5.26-47,6.1C96.62,769.44,67.48,765.33,43.1,750c-1.64-1-3.15,1.57-1.52,2.59Z"/><path d="M207.07,766.69c12.28-.75,25.27-3.26,36.31-8.93,3-1.52,5.88-3.84,6.06-7.44.13-2.73-1.63-5.37-2.4-7.91A36.4,36.4,0,0,1,245.59,731c0-1.93-3-1.93-3,0a39,39,0,0,0,1.82,13c.9,2.72,2.69,5.53,1.11,8.19-1.48,2.5-5.2,3.71-7.71,4.71a99.26,99.26,0,0,1-30.74,6.77c-1.92.12-1.93,3.12,0,3Z"/><path d="M113.15,532.57a14.93,14.93,0,0,0,4.51,6.37c1.48,1.21,3.61-.9,2.12-2.12a11.94,11.94,0,0,1-3.74-5.05c-.67-1.79-3.57-1-2.89.8Z"/><path d="M120.92,534.86a20.84,20.84,0,0,0,6.85,5.14c1.74.81,3.27-1.77,1.52-2.59a18.65,18.65,0,0,1-6.25-4.67c-1.27-1.46-3.39.67-2.12,2.12Z"/><path d="M236.25,534.78l-5,9c-.94,1.69,1.65,3.21,2.59,1.52l5-9c.93-1.69-1.66-3.21-2.59-1.52Z"/><path d="M241.21,534.83l-6.16,10.37a1.5,1.5,0,0,0,2.59,1.52l6.16-10.38a1.5,1.5,0,0,0-2.59-1.51Z"/><path d="M245.31,537.25l-6.75,14.63c-.81,1.74,1.78,3.27,2.59,1.52l6.75-14.64c.8-1.74-1.79-3.26-2.59-1.51Z"/><path d="M245.23,545a68,68,0,0,1-6.83,15c-1,1.66,1.59,3.17,2.59,1.52a71.58,71.58,0,0,0,7.14-15.74c.58-1.84-2.31-2.63-2.9-.79Z"/><path d="M245.93,554.74a102.56,102.56,0,0,1-5,12.63c-.84,1.73,1.75,3.25,2.59,1.51a109.83,109.83,0,0,0,5.35-13.34c.6-1.84-2.3-2.63-2.9-.8Z"/><path d="M195.6,780.16l18.76,1.21c5.79.37,20.44-1,20.46,7.68a1.5,1.5,0,0,0,3,0c0-6.95-6.36-9.4-12.36-9.95-9.92-.92-19.92-1.3-29.86-1.94-1.93-.12-1.92,2.88,0,3Z"/><path d="M23.92,793.49c13.94,6.36,29.05,8.42,44.15,10.08q25.64,2.8,51.44,3.55a646.41,646.41,0,0,0,103.87-5.48c1.89-.25,1.91-3.26,0-3a645.2,645.2,0,0,1-100,5.57q-24.79-.56-49.52-3c-16.42-1.65-33.26-3.35-48.45-10.28-1.74-.8-3.27,1.79-1.51,2.59Z"/><path d="M84,776.43a12.54,12.54,0,0,1,5.79,3.92c1.25,1.47,3.37-.66,2.12-2.12a15.39,15.39,0,0,0-7.11-4.69c-1.85-.59-2.63,2.31-.8,2.89Z"/><path d="M92.59,774.82a22.33,22.33,0,0,1,6.82,6.83c1,1.62,3.64.12,2.59-1.51a25.81,25.81,0,0,0-7.9-7.91c-1.63-1-3.14,1.56-1.51,2.59Z"/><path d="M103.26,777.2a8.93,8.93,0,0,1,4.32,4.46,1.51,1.51,0,0,0,2,.54,1.54,1.54,0,0,0,.54-2.05,11.47,11.47,0,0,0-5.39-5.54c-1.73-.85-3.25,1.74-1.52,2.59Z"/><path d="M173.18,513.28a20.74,20.74,0,0,0,3.48-8.53c.31-1.89-2.58-2.7-2.9-.8a18.64,18.64,0,0,1-3.17,7.81c-1.11,1.59,1.49,3.09,2.59,1.52Z"/><path d="M176.72,514.6l2.54-6.51c.7-1.8-2.2-2.58-2.89-.8l-2.54,6.51c-.71,1.8,2.19,2.58,2.89.8Z"/><path d="M180.5,518.74a13.44,13.44,0,0,0,5.06-11.12c-.08-1.92-3.08-1.93-3,0a10.66,10.66,0,0,1-4.18,9c-1.51,1.2.62,3.31,2.12,2.12Z"/><path d="M22,615.68l4.83-6.6c1.14-1.56-1.46-3.06-2.59-1.52l-4.83,6.61c-1.14,1.56,1.46,3.06,2.59,1.51Z"/><path d="M22.5,599.1l4.16-6.5c1-1.63-1.56-3.14-2.59-1.51l-4.16,6.5c-1.05,1.63,1.55,3.14,2.59,1.51Z"/><path d="M21.92,587.36l1.65-4.09a1.5,1.5,0,0,0-1.05-1.84,1.53,1.53,0,0,0-1.84,1.05L19,586.56a1.51,1.51,0,0,0,1.05,1.84,1.54,1.54,0,0,0,1.85-1Z"/><path d="M337.48,585.72a38,38,0,0,1-.15,15.58c-.41,1.88,2.48,2.69,2.89.8a42,42,0,0,0,.16-17.18c-.37-1.89-3.27-1.09-2.9.8Z"/></g></g></svg>